<?xml version="1.0" standalone="no"?>
<!DOCTYPE svg PUBLIC "-//W3C//DTD SVG 20010904//EN"
 "http://www.w3.org/TR/2001/REC-SVG-20010904/DTD/svg10.dtd">
<svg version="1.0" xmlns="http://www.w3.org/2000/svg"
 width="1142.000000pt" height="1437.000000pt" viewBox="0 0 1142.000000 1437.000000"
 preserveAspectRatio="xMidYMid meet">

<g transform="translate(0.000000,1437.000000) scale(0.100000,-0.100000)"
fill="#000000" stroke="none">
<path d="M4015 12328 c-3 -7 -4 -1388 -3 -3068 l3 -3055 523 -3 522 -2 1 147
c1 162 2 190 12 199 4 4 40 -16 82 -45 282 -195 632 -302 990 -303 184 -1 265
8 265 27 0 7 -44 53 -97 102 -54 48 -120 109 -148 134 -27 25 -72 66 -100 90
-151 133 -309 353 -454 632 -37 72 -65 111 -105 148 -194 178 -306 432 -306
698 0 98 27 255 58 331 127 320 382 537 712 606 84 18 287 18 370 0 232 -50
415 -162 560 -343 92 -114 146 -225 187 -380 24 -96 24 -331 -1 -428 -23 -90
-51 -163 -88 -233 -34 -65 -106 -169 -137 -196 -11 -11 -21 -27 -21 -37 0 -19
126 -152 210 -221 30 -25 118 -89 195 -143 77 -54 164 -116 192 -137 29 -22
59 -38 67 -35 8 3 27 23 42 44 16 21 34 44 41 51 24 26 122 179 160 252 93
178 142 323 195 580 18 88 18 491 -1 580 -49 245 -88 364 -174 538 -194 391
-542 714 -942 874 -224 90 -424 128 -670 128 -362 0 -674 -93 -983 -293 -51
-33 -96 -57 -99 -53 -4 3 -7 16 -9 29 -1 12 -3 646 -3 1410 l-1 1387 -520 0
c-407 0 -522 -3 -525 -12z"/>
<path d="M6830 3850 c-64 -14 -145 -56 -176 -93 -59 -70 -69 -109 -69 -267 0
-138 1 -148 28 -202 38 -76 87 -125 214 -209 187 -123 203 -145 203 -281 0
-108 -13 -138 -60 -138 -51 0 -60 27 -60 177 l0 133 -166 0 -166 0 5 -147 c5
-167 18 -218 72 -280 62 -72 204 -111 361 -99 170 13 273 65 321 164 27 56 28
61 28 232 0 173 0 176 -28 228 -44 83 -101 139 -237 227 -69 45 -140 99 -158
119 -30 34 -32 41 -32 112 0 93 10 114 54 114 53 0 69 -27 74 -125 l5 -85 154
0 155 0 -3 113 c-4 97 -8 119 -30 162 -30 60 -91 108 -162 131 -61 19 -260 28
-327 14z"/>
<path d="M3100 3150 l0 -680 159 0 c156 0 159 0 165 23 3 12 6 32 6 44 0 21 6
18 61 -26 69 -56 134 -77 205 -67 100 13 161 73 190 187 13 50 15 119 12 417
-5 408 -6 420 -87 502 -90 93 -220 89 -321 -9 l-50 -47 0 168 0 168 -170 0
-170 0 0 -680z m426 222 c31 -20 34 -54 34 -363 0 -344 -1 -349 -61 -349 -57
0 -59 12 -59 361 l0 318 26 20 c28 22 42 25 60 13z"/>
<path d="M4120 3150 l0 -680 175 0 175 0 0 680 0 680 -175 0 -175 0 0 -680z"/>
<path d="M4650 3695 l0 -135 105 0 105 0 0 -545 0 -545 175 0 175 0 0 545 0
545 105 0 105 0 0 135 0 135 -385 0 -385 0 0 -135z"/>
<path d="M5911 3609 c-125 -21 -227 -94 -274 -197 -21 -45 -22 -60 -22 -382 0
-331 0 -336 24 -387 27 -61 103 -136 165 -164 73 -32 185 -45 276 -31 98 14
165 47 218 108 61 68 82 134 85 262 l2 107 -162 3 -163 2 0 -118 c0 -133 -11
-162 -59 -162 -48 0 -51 11 -51 192 l0 168 218 2 217 3 3 105 c4 131 -11 247
-38 301 -51 98 -146 166 -264 188 -68 12 -98 12 -175 0z m136 -229 c7 -14 13
-60 13 -102 l0 -78 -55 0 -55 0 0 93 c0 61 4 97 12 105 21 21 71 10 85 -18z"/>
<path d="M8767 3610 c-131 -21 -220 -94 -253 -207 -23 -78 -16 -223 13 -278
29 -56 105 -124 188 -169 193 -106 205 -118 205 -203 0 -61 -21 -93 -60 -93
-46 0 -60 31 -60 127 l0 83 -155 0 -155 0 0 -98 c0 -111 16 -176 54 -227 60
-78 222 -118 392 -97 195 25 279 97 304 259 13 85 0 196 -30 258 -29 61 -79
101 -212 171 -61 32 -128 75 -150 95 -34 32 -38 41 -38 86 0 55 20 83 58 83
34 0 52 -37 52 -107 l0 -63 155 0 155 0 0 89 c0 77 -4 95 -28 141 -31 62 -97
112 -174 135 -66 19 -188 26 -261 15z"/>
<path d="M7543 3568 c20 -82 187 -1013 187 -1040 0 -47 -15 -58 -82 -58 l-58
0 0 -80 0 -80 204 0 c217 0 243 4 289 48 72 68 83 114 165 727 l68 500 -144 3
c-80 1 -147 1 -149 -1 -2 -3 -17 -192 -33 -422 -16 -229 -30 -419 -32 -421 -2
-2 -21 166 -42 374 -21 207 -40 398 -43 425 l-6 47 -164 0 -165 0 5 -22z"/>
<path d="M2320 1615 l0 -455 3845 0 3845 0 0 455 0 455 -3845 0 -3845 0 0
-455z m1225 170 c0 -22 -31 -33 -47 -17 -17 17 -1 44 24 40 15 -2 23 -10 23
-23z m2095 -160 c0 -178 -1 -185 -20 -185 -14 0 -20 7 -20 22 0 20 -1 20 -18
5 -34 -31 -76 -40 -115 -23 -51 21 -70 63 -65 144 4 58 8 68 36 93 40 36 96
39 136 8 l26 -20 0 70 c0 64 2 71 20 71 19 0 20 -7 20 -185z m1060 114 l0 -70
26 20 c26 21 76 27 109 15 32 -13 45 -59 45 -164 0 -93 -1 -100 -20 -100 -19
0 -20 7 -20 98 0 113 -10 135 -59 135 -58 0 -75 -29 -79 -138 -4 -86 -6 -95
-23 -95 -18 0 -19 10 -19 185 0 178 1 185 20 185 18 0 20 -7 20 -71z m920 -94
l0 -165 25 -10 c14 -5 25 -14 25 -19 0 -17 -32 -21 -58 -8 l-27 12 -3 178 c-2
172 -2 177 18 177 19 0 20 -6 20 -165z m1460 11 c0 -85 3 -161 6 -170 3 -9 15
-16 25 -16 23 0 25 -25 4 -34 -23 -8 -62 13 -69 38 -3 11 -6 92 -6 179 0 150
1 157 20 157 19 0 20 -7 20 -154z m450 83 l0 -70 26 20 c57 45 141 17 164 -55
33 -99 -17 -197 -99 -197 -22 0 -52 8 -66 17 -22 14 -25 15 -25 1 0 -8 -9 -15
-20 -15 -19 0 -20 7 -20 185 0 178 1 185 20 185 18 0 20 -7 20 -71z m-595 35
c29 -19 42 -53 25 -64 -8 -5 -21 2 -34 17 -15 17 -35 26 -67 30 -38 4 -50 1
-77 -22 -82 -68 -57 -239 38 -260 41 -9 94 10 110 40 13 24 30 32 43 19 3 -4
0 -19 -9 -35 -43 -85 -183 -83 -247 3 -22 30 -34 115 -23 173 9 45 58 102 100
115 40 12 110 5 141 -16z m-6121 5 c13 -7 30 -25 37 -41 10 -24 9 -35 -4 -64
-9 -19 -22 -34 -29 -34 -7 -1 -1 -7 14 -16 54 -29 66 -102 24 -151 -23 -27
-28 -28 -130 -31 l-106 -4 0 176 0 176 85 0 c46 0 95 -5 109 -11z m3266 -4 c0
-12 -13 -15 -55 -15 l-55 0 0 -160 c0 -153 -1 -160 -20 -160 -18 0 -20 8 -22
158 l-3 157 -52 3 c-38 2 -53 7 -53 18 0 11 23 14 130 14 109 0 130 -2 130
-15z m2144 -44 c3 -5 -3 -20 -13 -33 -13 -16 -17 -29 -10 -39 13 -20 11 -71
-4 -90 -19 -25 -52 -39 -91 -39 -39 0 -53 -14 -36 -35 8 -10 32 -15 71 -15 46
0 64 -5 79 -20 30 -30 26 -73 -11 -104 -26 -22 -40 -26 -93 -26 -49 0 -69 5
-90 21 -34 27 -35 70 -2 96 19 15 21 21 10 31 -19 17 -18 28 4 50 18 18 18 19
0 42 -28 34 -23 76 13 112 28 28 34 30 79 25 43 -5 50 -3 55 14 7 20 30 26 39
10z m-5234 -119 c0 -111 13 -142 59 -142 59 0 80 46 81 173 0 60 2 68 18 65
15 -3 17 -19 20 -136 2 -127 2 -132 -18 -132 -14 0 -20 7 -20 22 l0 21 -25
-23 c-33 -31 -98 -32 -128 -1 -19 19 -22 35 -25 122 -4 109 -1 129 23 129 12
0 15 -17 15 -98z m408 82 c17 -12 20 -19 12 -29 -9 -11 -16 -10 -41 2 -52 26
-108 -5 -82 -45 5 -9 32 -22 59 -29 80 -20 110 -85 62 -130 -36 -33 -117 -35
-158 -4 -20 16 -22 21 -11 35 12 14 16 14 38 -4 42 -33 113 -21 113 19 0 25
-19 39 -79 56 -53 16 -71 36 -71 79 0 55 104 88 158 50z m142 -119 c0 -128 -1
-135 -20 -135 -19 0 -20 7 -20 135 0 128 1 135 20 135 19 0 20 -7 20 -135z
m130 114 l0 -20 26 20 c38 30 98 28 129 -4 24 -23 25 -31 25 -135 0 -103 -1
-110 -20 -110 -19 0 -20 7 -20 104 0 115 -7 130 -62 128 -56 -1 -72 -29 -76
-137 -4 -85 -6 -95 -23 -95 -18 0 -19 9 -19 128 0 71 3 132 7 135 14 14 33 6
33 -14z m452 -7 c14 -13 22 -38 26 -71 l5 -51 -95 0 -95 0 5 -25 c11 -57 93
-84 133 -44 11 11 27 18 36 15 25 -10 -7 -49 -52 -64 -49 -16 -109 1 -137 39
-44 59 -28 175 29 212 37 24 117 18 145 -11z m239 12 c25 -12 28 -18 19 -29
-10 -12 -16 -12 -42 1 -33 17 -83 11 -91 -10 -10 -25 22 -54 65 -61 102 -18
119 -127 23 -154 -56 -15 -135 11 -135 45 0 24 20 26 46 5 32 -25 76 -27 98
-5 32 32 16 55 -49 73 -61 16 -85 37 -85 74 0 18 4 37 8 43 23 35 94 44 143
18z m250 -3 c36 -29 13 -47 -31 -25 -44 22 -85 9 -85 -26 0 -21 8 -28 55 -43
69 -23 90 -42 90 -82 0 -43 -18 -65 -63 -75 -64 -14 -152 25 -126 56 9 11 16
10 36 -6 48 -37 118 -18 111 30 -2 20 -13 27 -53 38 -62 17 -95 46 -95 83 0
61 108 94 161 50z m380 0 c22 -17 24 -28 27 -120 3 -79 7 -101 18 -101 8 0 14
-7 14 -15 0 -20 -44 -20 -60 0 -12 14 -15 14 -31 -1 -11 -10 -35 -17 -61 -17
-55 0 -93 40 -84 87 9 42 24 55 86 71 29 8 60 21 69 30 15 15 14 18 -8 36 -25
20 -59 18 -96 -7 -25 -18 -32 -17 -39 1 -8 23 50 55 100 55 26 0 51 -7 65 -19z
m156 -1 c5 -20 5 -20 30 0 29 22 70 26 107 8 34 -15 46 -60 46 -170 0 -81 -2
-88 -20 -88 -18 0 -20 7 -21 88 -1 48 -4 98 -8 112 -13 47 -97 43 -120 -6 -6
-14 -11 -63 -11 -109 0 -78 -2 -85 -20 -85 -19 0 -20 7 -20 135 0 117 2 135
16 135 9 0 18 -9 21 -20z m1123 5 c30 -16 54 -68 48 -107 -3 -22 -8 -23 -95
-26 -54 -2 -93 -7 -93 -13 0 -19 29 -67 45 -73 30 -11 62 -6 89 15 41 32 64 7
25 -29 -42 -40 -125 -34 -169 13 -28 30 -38 106 -20 160 21 65 104 94 170 60z
m302 -14 c29 -26 31 -30 15 -36 -11 -5 -25 -1 -36 9 -20 18 -73 21 -101 6 -46
-25 -48 -134 -3 -170 35 -27 65 -25 103 6 36 31 61 21 39 -14 -29 -47 -114
-61 -165 -28 -55 37 -70 147 -27 205 44 59 123 69 175 22z m435 9 c5 -20 5
-20 30 0 29 22 70 26 107 8 34 -15 46 -60 46 -170 0 -81 -2 -88 -20 -88 -18 0
-20 7 -21 88 -1 48 -4 98 -8 112 -13 47 -97 43 -120 -6 -6 -14 -11 -63 -11
-109 0 -78 -2 -85 -20 -85 -19 0 -20 7 -20 135 0 117 2 135 16 135 9 0 18 -9
21 -20z m433 5 c40 -21 60 -63 60 -129 0 -65 -31 -110 -86 -125 -33 -9 -84 -1
-110 17 -67 47 -55 212 19 242 34 14 85 12 117 -5z m450 0 c40 -21 60 -63 60
-129 0 -65 -31 -110 -86 -125 -33 -9 -84 -1 -110 17 -67 47 -55 212 19 242 34
14 85 12 117 -5z m447 -70 c18 -44 37 -93 43 -110 11 -29 12 -27 53 80 29 75
48 111 60 113 9 2 17 -1 17 -7 0 -25 -124 -328 -143 -348 -29 -32 -107 -33
-107 -2 0 16 4 19 20 14 31 -10 59 3 75 36 15 28 14 35 -35 157 -55 141 -58
155 -32 150 11 -2 28 -31 49 -83z m883 -13 c0 -111 13 -142 59 -142 59 0 80
46 81 173 0 60 2 68 18 65 15 -3 17 -19 20 -136 2 -127 2 -132 -18 -132 -14 0
-20 7 -20 22 l0 21 -25 -23 c-33 -31 -98 -32 -128 -1 -19 19 -22 35 -25 122
-4 109 -1 129 23 129 12 0 15 -17 15 -98z"/>
<path d="M5474 1662 c-21 -14 -34 -51 -34 -97 0 -75 51 -112 114 -84 48 22 60
126 20 170 -17 19 -78 26 -100 11z"/>
<path d="M9551 1644 c-24 -31 -28 -95 -8 -134 15 -30 54 -45 91 -36 54 13 73
129 30 177 -27 30 -87 26 -113 -7z"/>
<path d="M2670 1699 l0 -61 54 4 c67 6 86 20 86 64 0 40 -24 54 -96 54 l-44 0
0 -61z"/>
<path d="M2670 1539 l0 -72 67 6 c80 6 109 30 99 82 -9 43 -31 55 -103 55
l-63 0 0 -71z"/>
<path d="M8082 1664 c-57 -39 6 -127 64 -90 32 21 33 69 2 90 -28 20 -38 20
-66 0z"/>
<path d="M8062 1439 c-33 -13 -30 -56 6 -70 32 -12 96 -6 117 11 18 15 20 49
3 55 -30 9 -105 11 -126 4z"/>
<path d="M4020 1673 c-26 -10 -50 -36 -50 -55 0 -16 9 -18 70 -18 60 0 70 2
70 18 0 23 -10 37 -37 51 -23 12 -30 12 -53 4z"/>
<path d="M4921 1566 c-51 -13 -73 -40 -60 -73 6 -18 16 -23 42 -23 41 0 66 24
74 74 6 39 7 39 -56 22z"/>
<path d="M6173 1668 c-12 -6 -26 -24 -32 -39 l-10 -29 75 0 c83 0 94 11 49 55
-26 27 -47 30 -82 13z"/>
<path d="M7334 1662 c-21 -14 -34 -51 -34 -97 0 -56 32 -95 78 -95 49 0 74 29
80 91 5 71 -21 109 -76 109 -20 0 -42 -4 -48 -8z"/>
<path d="M7784 1662 c-21 -14 -34 -51 -34 -97 0 -56 32 -95 78 -95 49 0 74 29
80 91 5 71 -21 109 -76 109 -20 0 -42 -4 -48 -8z"/>
</g>
</svg>
