<svg version="1.1" id="Layer_1" xmlns="http://www.w3.org/2000/svg" xmlns:xlink="http://www.w3.org/1999/xlink" x="0px" y="0px"
	 width="100%" viewBox="0 0 474 642" enable-background="new 0 0 474 642" xml:space="preserve">
<path fill="#FEFEFE" opacity="1.000000" stroke="none" 
	d="
M1.000000,228.000000 
	C1.000000,152.016891 1.000000,76.533768 1.000000,1.025327 
	C158.947784,1.025327 316.895569,1.025327 474.921692,1.025327 
	C474.921692,214.899902 474.921692,428.799835 474.921692,642.849854 
	C317.000092,642.849854 159.000076,642.849854 1.000000,642.849854 
	C1.000000,504.770905 1.000000,366.635468 1.000000,228.000000 
M243.288910,44.979221 
	C244.699661,49.011162 246.179642,53.020458 247.507141,57.079632 
	C250.532440,66.330254 251.707397,75.809410 250.703384,85.514938 
	C248.813675,103.782143 246.852966,122.042084 245.001160,140.313095 
	C243.848221,151.688766 242.907379,163.086288 241.693970,174.455063 
	C241.519669,176.088089 240.346481,177.614517 239.635574,179.190277 
	C238.012817,175.254562 237.404526,171.719299 237.210815,168.161469 
	C235.777191,141.828110 233.898895,115.503349 233.244186,89.148956 
	C232.843307,73.012405 227.809021,59.074692 218.452911,46.309742 
	C216.439957,43.563385 214.352249,42.125183 211.126709,44.612762 
	C211.561554,45.424957 211.964920,46.149544 212.342270,46.887421 
	C218.822708,59.558960 225.493134,72.087105 225.890793,86.908600 
	C226.345200,103.844147 227.251389,120.769142 228.096420,137.691971 
	C228.509460,145.963882 229.376724,154.213669 229.758881,162.486374 
	C230.023315,168.210175 229.809723,173.956070 229.809723,179.692093 
	C229.348938,179.839935 228.888153,179.987778 228.427368,180.135635 
	C227.680038,178.401993 226.614746,176.735397 226.233032,174.924683 
	C220.412415,147.314178 214.328781,119.751740 209.065842,92.033905 
	C206.078033,76.298180 199.406021,62.965153 187.986023,51.844582 
	C185.578217,49.499916 183.358887,48.032539 180.147705,50.638405 
	C181.058884,51.889542 182.030838,53.225338 183.004044,54.560223 
	C190.220963,64.459366 197.578232,74.183380 200.138824,86.677994 
	C205.204453,111.396255 210.670197,136.032333 215.918381,160.713486 
	C217.410294,167.729645 218.722198,174.784073 220.116653,181.820953 
	C219.542068,182.080627 218.967484,182.340317 218.392883,182.599991 
	C217.514343,181.193222 216.376114,179.885513 215.795975,178.364883 
	C206.146683,153.073044 196.158554,127.899406 187.117523,102.390511 
	C181.192307,85.672699 173.012238,71.071884 157.867386,61.054695 
	C155.260361,59.330341 153.285568,58.791809 150.079926,62.346058 
	C153.275711,65.122475 156.967529,67.551399 159.639236,70.815331 
	C164.964096,77.320549 171.368088,83.618858 174.436157,91.175995 
	C186.663498,121.293930 197.798203,151.856018 209.244125,182.288757 
	C209.737289,183.600006 209.307205,185.258499 209.307205,186.755234 
	C207.383057,185.632477 206.536026,184.428238 205.812225,183.154007 
	C192.641357,159.967484 179.121216,136.969177 166.451675,113.511559 
	C157.738205,97.378616 147.609406,83.081779 130.485825,74.922150 
	C127.220482,73.366188 125.122353,73.545502 122.970284,76.506165 
	C134.254562,84.324562 145.525070,91.946594 152.405945,104.000092 
	C168.498917,132.190842 184.365585,160.510818 200.280960,188.802643 
	C200.768524,189.669373 200.780594,190.803543 201.014359,191.813034 
	C198.942398,191.429230 197.712585,190.522644 196.799957,189.365829 
	C178.680832,166.399063 160.398346,143.556900 142.587875,120.352577 
	C132.812698,107.616982 121.285484,97.719398 105.769615,92.828064 
	C102.704552,91.861801 100.117119,91.162109 97.969521,94.922813 
	C100.585533,96.316948 103.014153,97.681519 105.503014,98.925568 
	C117.094978,104.719810 127.285873,112.149300 135.203461,122.649483 
	C144.705109,135.250427 154.585342,147.566360 164.330292,159.983215 
	C173.049866,171.093521 181.835693,182.151962 190.517990,193.291199 
	C191.714478,194.826279 192.482925,196.695007 193.449539,198.409271 
	C192.982574,198.682587 192.515610,198.955902 192.048630,199.229218 
	C190.558807,197.989349 189.000122,196.822815 187.589569,195.498520 
	C168.782181,177.841507 149.764297,160.400024 131.279312,142.411133 
	C117.322296,128.828705 103.122475,116.250648 82.698357,113.558121 
	C79.192734,113.095970 77.511475,113.641144 76.058777,116.877640 
	C79.023636,117.955772 81.926369,118.718910 84.561455,120.022896 
	C93.415253,124.404251 103.572067,127.406502 110.716286,133.762314 
	C135.947571,156.209198 160.140198,179.823944 184.693390,203.031052 
	C185.516098,203.808655 185.981079,204.964722 186.612808,205.944366 
	C184.279175,206.043518 182.669601,205.373520 181.269836,204.401382 
	C160.009659,189.636246 138.596069,175.082657 117.596375,159.954834 
	C101.444809,148.319550 85.287987,137.515259 64.178780,137.521988 
	C60.187347,137.523270 59.086609,138.762436 57.764816,141.732162 
	C59.827747,142.185135 61.577229,142.615082 63.344727,142.949951 
	C75.064423,145.170502 86.796425,147.531189 96.830490,154.453384 
	C124.012413,173.205338 151.087158,192.112839 178.158585,211.024246 
	C179.439896,211.919342 180.280304,213.445541 181.326035,214.677841 
	C179.268570,215.025803 177.966415,214.563599 176.737473,213.953812 
	C149.779022,200.577774 122.632385,187.561829 95.953758,173.648590 
	C81.015732,165.858231 65.645859,162.452499 48.986214,163.911728 
	C45.641602,164.204681 43.988529,165.460724 43.782684,168.935135 
	C48.776611,169.312302 53.468346,169.269379 58.001842,170.095139 
	C66.378235,171.620865 75.353851,172.189850 82.863251,175.734665 
	C113.795860,190.336304 144.274567,205.899841 174.900299,221.149612 
	C175.800064,221.597641 176.478592,222.489975 177.260254,223.175156 
	C177.091309,223.561691 176.922348,223.948227 176.753403,224.334763 
	C174.303375,223.723434 171.804489,223.261383 169.410797,222.477936 
	C142.126114,213.547867 114.689774,205.040497 87.647179,195.426620 
	C71.309219,189.618317 55.134628,188.446152 38.389992,192.078278 
	C35.180241,192.774506 32.798473,193.939667 34.337265,197.573822 
	C47.698952,197.253738 60.698292,194.659210 73.541183,198.837433 
	C101.009697,207.773865 128.489288,216.676178 155.957794,225.612625 
	C162.297699,227.675217 168.611206,229.818924 174.936859,231.925293 
	C174.863815,232.375320 174.790756,232.825333 174.717697,233.275345 
	C173.194427,233.275345 171.641602,233.469070 170.152985,233.241913 
	C163.625763,232.245880 157.108124,231.179565 150.603363,230.045044 
	C128.311493,226.157013 106.040344,222.147995 83.731476,218.360748 
	C75.763397,217.008057 67.593048,214.766968 59.726234,215.431564 
	C50.195347,216.236694 40.838108,219.514587 31.530428,222.161057 
	C29.849607,222.638947 28.770273,225.232285 27.413246,226.848984 
	C27.808123,227.254944 28.202999,227.660889 28.597876,228.066849 
	C30.941956,227.484604 33.282089,226.885895 35.630783,226.322891 
	C46.887627,223.624481 58.220448,221.212601 69.853096,223.192795 
	C100.449707,228.401230 131.019760,233.766174 161.591293,239.120758 
	C165.459229,239.798218 169.272720,240.786407 173.111420,241.630615 
	C173.037598,242.110046 172.963760,242.589462 172.889938,243.068878 
	C169.381027,243.068878 165.870514,243.138153 162.363510,243.056473 
	C149.399551,242.754578 136.437454,242.372696 123.473381,242.077240 
	C106.347649,241.686966 89.210594,241.601364 72.097336,240.913727 
	C57.196545,240.315018 43.602928,243.898285 30.799202,251.410660 
	C27.702019,253.227875 26.290716,255.027573 27.383167,258.652466 
	C29.163317,258.016693 31.058392,257.524750 32.789925,256.692535 
	C47.944969,249.408646 63.898144,246.717133 80.607307,248.165268 
	C84.400444,248.494019 88.202477,248.801971 92.006393,248.911087 
	C116.598755,249.616501 141.190964,250.347244 165.787277,250.883698 
	C173.892456,251.060471 172.820724,249.983429 173.115616,259.659668 
	C133.645782,265.022766 94.150894,270.389313 54.405052,275.789948 
	C55.447193,282.860596 56.335033,288.884338 57.340691,295.707458 
	C96.484642,284.801483 135.172516,274.022583 173.955704,263.217133 
	C175.759827,266.709381 175.835251,268.924591 171.563385,270.087341 
	C139.898392,278.705872 108.264565,287.439056 76.628403,296.163239 
	C70.679367,297.803741 64.763618,299.565002 58.594368,301.339020 
	C60.641525,307.981476 62.503628,314.023499 64.460670,320.373596 
	C68.499748,318.915039 71.978493,317.871338 75.284966,316.431854 
	C107.403320,302.449219 139.492111,288.398621 171.591263,274.371857 
	C176.837845,272.079193 177.308502,272.312347 178.414780,277.936920 
	C141.285767,294.065338 104.089203,310.223083 66.736259,326.448761 
	C69.717827,332.703766 72.579880,338.708038 75.744232,345.346558 
	C110.797714,323.782104 145.508316,302.428589 180.299133,281.025726 
	C181.369781,282.716736 182.235764,284.084473 183.452911,286.006866 
	C148.539719,307.451752 113.846581,328.761444 78.717995,350.338654 
	C82.136536,355.435852 85.860962,360.989136 90.224495,367.495392 
	C123.224953,342.341522 153.434433,314.860046 185.395844,289.343597 
	C186.676422,290.930481 187.694977,292.192688 189.100540,293.934448 
	C157.478012,320.191559 125.969147,346.354309 94.407600,372.560791 
	C97.695007,376.247467 101.146774,380.523895 105.096596,384.276062 
	C106.143753,385.270813 109.251472,385.448853 110.495613,384.621796 
	C113.787666,382.433289 116.860550,379.745453 119.521973,376.804993 
	C139.056427,355.222290 158.461548,333.522552 177.924484,311.875061 
	C182.335556,306.968903 186.813431,302.122803 191.349213,297.151886 
	C193.038361,298.515228 194.268402,299.508026 196.010468,300.914062 
	C168.314774,331.534058 140.910767,361.831573 113.244308,392.419220 
	C118.015015,396.312134 123.207336,400.549042 128.941284,405.227966 
	C132.817368,400.563385 136.666702,396.620331 139.719040,392.134918 
	C151.132767,375.362305 162.285324,358.411957 173.536301,341.528564 
	C181.892319,328.989441 190.249084,316.450775 198.775040,303.657501 
	C200.544525,304.865936 201.949448,305.825409 203.791962,307.083710 
	C180.170319,341.062927 159.402573,376.267487 134.273453,408.928528 
	C135.555206,409.724182 137.200562,410.772552 138.871490,411.778473 
	C154.002365,420.887451 154.219223,420.989929 161.947479,405.070007 
	C171.832306,384.707703 181.317001,364.151276 190.991882,343.686890 
	C196.361481,332.329041 201.767273,320.988312 207.315765,309.305023 
	C209.238403,310.381561 210.736969,311.220642 212.387421,312.144745 
	C206.102158,325.513672 200.295059,338.466705 193.980392,351.167419 
	C182.149429,374.962982 173.024124,400.125702 158.149475,422.736389 
	C163.760696,425.031281 169.470764,427.562866 175.352264,429.599243 
	C176.470123,429.986298 178.983582,428.814270 179.622452,427.672791 
	C182.018097,423.392670 184.435883,418.993317 185.889694,414.340088 
	C192.769058,392.321075 199.331085,370.202911 206.009720,348.121155 
	C209.435440,336.794586 212.868408,325.470245 216.376343,313.886536 
	C218.498016,314.544281 220.161758,315.060059 222.050293,315.645538 
	C217.299347,331.585632 212.954437,347.332520 207.899902,362.848267 
	C200.301178,386.173798 195.415085,410.427948 184.338623,432.981079 
	C187.332886,433.800842 190.471588,434.679596 193.620819,435.518951 
	C206.154312,438.859467 207.301147,438.508575 209.849426,425.548126 
	C212.681061,411.146576 214.709595,396.582672 216.910660,382.062653 
	C220.005661,361.645599 222.881622,341.195129 226.062714,320.791870 
	C226.278595,319.407166 228.264206,318.298370 229.426743,317.061218 
	C230.226944,318.556458 231.871811,320.159424 231.696899,321.530243 
	C229.921890,335.442444 228.236267,349.385559 225.777435,363.186768 
	C221.239120,388.660095 220.337509,414.795105 211.891632,439.765503 
	C219.203430,440.295715 226.413834,440.818573 234.700073,441.419434 
	C235.529266,433.412384 236.891342,426.079987 236.927841,418.740997 
	C237.013840,401.451019 236.273315,384.158295 236.236282,366.865875 
	C236.204224,351.900024 236.744720,336.933716 236.892624,321.966217 
	C236.936829,317.491486 239.492828,317.811707 242.532089,318.319672 
	C242.696121,318.962372 242.929199,319.434784 242.920059,319.902527 
	C242.125900,360.526978 244.832092,401.215912 241.303787,441.928986 
	C243.011124,441.928986 245.339539,442.035706 247.653732,441.899933 
	C250.119141,441.755249 252.564987,441.239563 255.030029,441.133484 
	C262.817871,440.798370 262.823914,440.842407 263.122040,432.841248 
	C263.165466,431.676147 263.309692,430.488831 263.154572,429.346100 
	C260.264709,408.055725 257.414398,386.759521 254.390778,365.488007 
	C252.144958,349.688477 249.663895,333.922394 247.246628,317.869232 
	C249.202942,317.496002 250.789780,317.193268 253.357864,316.703308 
	C258.098541,358.079163 268.084351,398.354065 270.084473,439.843781 
	C274.658875,438.969147 279.665070,437.907501 284.709351,437.077148 
	C289.626190,436.267822 291.616516,434.151978 290.848602,429.199982 
	C289.989929,423.662659 289.025208,418.081390 287.402557,412.732880 
	C278.019806,381.806366 268.511719,350.916962 258.811523,320.088776 
	C257.497284,315.912048 258.637573,314.627350 262.915344,314.525360 
	C263.590912,316.231171 264.418488,318.012756 265.010254,319.869476 
	C267.312286,327.092255 269.746216,334.281921 271.758575,341.586548 
	C280.232086,372.344818 292.965942,401.913910 297.792175,433.995056 
	C300.231140,433.129059 302.843109,432.188324 305.463989,431.273285 
	C319.722198,426.295349 320.380188,425.796295 314.399353,411.741272 
	C307.671143,395.929779 299.916199,380.552307 292.507080,365.034210 
	C284.173340,347.579498 275.727020,330.178528 267.154816,312.391357 
	C269.039459,311.413147 270.572235,310.617584 272.118805,309.814880 
	C272.824921,310.919586 273.339630,311.568634 273.690582,312.296631 
	C284.176910,334.049072 294.804413,355.735504 305.060364,377.596191 
	C311.155182,390.587250 316.710022,403.833588 322.381989,417.019196 
	C323.287689,419.124725 323.531586,421.514954 324.147034,424.042999 
	C329.852234,421.041962 334.942657,418.294830 340.100830,415.681335 
	C342.553925,414.438446 343.712891,412.907867 342.404297,410.139526 
	C340.008636,405.071625 338.281403,399.578400 335.235321,394.946533 
	C322.929626,376.234528 310.228424,357.782501 297.670929,339.236115 
	C290.539124,328.703033 283.402863,318.172974 276.026367,307.283936 
	C277.889099,306.067444 279.299194,305.146545 280.753998,304.196472 
	C281.575775,305.146149 282.203003,305.714844 282.643951,306.402924 
	C304.771301,340.930328 330.536469,373.111877 349.978149,409.647003 
	C354.539886,406.276550 359.727478,402.703979 364.531281,398.673950 
	C365.487946,397.871368 365.704803,394.921478 365.008728,393.646393 
	C362.721893,389.457306 360.305664,385.182129 357.143005,381.653687 
	C337.822876,360.099274 318.279327,338.745209 298.819092,317.316345 
	C293.848511,311.842926 288.909729,306.340637 284.117218,301.029877 
	C287.297394,297.108032 289.263794,297.852936 292.024292,300.930634 
	C307.797577,318.516327 324.008087,335.711121 339.709900,353.359161 
	C350.900574,365.936859 363.831207,377.127991 371.160645,391.607635 
	C376.375366,386.911835 381.654358,382.158142 387.598175,376.805817 
	C383.647858,372.414337 380.440552,367.903595 376.340912,364.453064 
	C357.383728,348.497498 338.175659,332.840118 319.063324,317.068756 
	C309.714569,309.354218 300.378601,301.624207 291.349304,294.159515 
	C292.558838,292.308472 293.524109,290.831238 294.679962,289.062347 
	C327.204376,317.617401 361.802765,341.912079 392.046539,371.463745 
	C395.834106,366.117218 399.917145,360.353607 404.265778,354.215118 
	C400.834198,351.292999 397.968231,348.156525 394.492676,346.004639 
	C369.844971,330.743988 345.071594,315.686401 320.340240,300.560883 
	C312.490967,295.760345 304.647644,290.950073 296.586700,286.012604 
	C297.841125,284.150635 298.736267,282.821991 299.988281,280.963654 
	C335.809052,303.922546 373.232117,323.868195 407.948792,348.231903 
	C410.849762,342.497131 413.977966,336.313141 417.447784,329.453796 
	C412.871002,326.811981 408.804352,323.927032 404.331116,321.972748 
	C381.148315,311.844452 357.856750,301.965302 334.613373,291.975372 
	C323.551910,287.221191 312.513275,282.413910 301.223572,277.526428 
	C302.037567,275.633148 302.680481,274.137726 303.593811,272.013428 
	C342.527283,288.846222 381.264526,305.594147 420.024719,322.352020 
	C419.938812,322.535919 420.277710,321.953491 420.491577,321.328308 
	C421.559296,318.207184 422.649292,315.092010 423.630096,311.943176 
	C426.304016,303.358459 426.463440,302.762939 417.912079,300.155579 
	C399.138000,294.431427 380.183441,289.292877 361.265320,284.049652 
	C342.549286,278.862457 323.787476,273.840485 305.078583,268.754944 
	C304.763947,264.050446 306.365906,262.748993 310.640289,263.964722 
	C327.113678,268.650208 343.645020,273.131897 360.156525,277.683197 
	C382.672424,283.889526 405.189941,290.090027 427.952820,296.360809 
	C428.809326,290.189514 429.729675,283.558563 430.782776,275.970886 
	C389.529633,269.100098 348.323425,264.925842 306.845917,259.740601 
	C307.031158,256.416931 307.201141,253.366928 307.336884,250.931107 
	C323.379517,250.931107 338.820129,250.916031 354.260681,250.935013 
	C372.593201,250.957550 390.936859,250.628845 409.254547,251.169876 
	C423.703674,251.596603 436.717773,247.833206 448.695251,240.156845 
	C450.595032,238.939285 451.598755,236.323654 453.016754,234.354401 
	C452.600403,234.021454 452.184021,233.688507 451.767670,233.355545 
	C451.331421,233.441360 450.872864,233.468185 450.462952,233.623474 
	C448.922211,234.207062 447.367981,234.768143 445.871216,235.452377 
	C432.913666,241.375854 419.607971,244.768982 405.067780,244.114746 
	C384.133087,243.172775 363.148682,243.309296 342.184662,243.055527 
	C332.353027,242.936508 322.518860,243.028519 312.687225,242.911011 
	C310.737732,242.887726 308.794495,242.344788 306.848358,242.041489 
	C306.849518,241.563614 306.850677,241.085739 306.851868,240.607864 
	C310.027649,240.076523 313.190186,239.442108 316.381500,239.031616 
	C330.486633,237.217300 344.608032,235.528412 358.708160,233.676849 
	C372.479736,231.868439 386.183594,229.328018 400.006134,228.179779 
	C417.055634,226.763474 432.159576,221.338638 445.425690,210.471375 
	C448.253082,208.155243 449.221863,206.218903 447.276306,202.838318 
	C444.934387,204.237213 442.763885,205.765442 440.404327,206.900803 
	C432.533417,210.688110 424.933899,216.003464 416.612854,217.694351 
	C398.190155,221.438004 379.397949,223.377197 360.744781,225.968338 
	C346.666656,227.923965 332.576263,229.794952 318.478729,231.605453 
	C314.133087,232.163544 309.745911,232.398483 305.377747,232.781403 
	C305.318329,232.259155 305.258911,231.736893 305.199493,231.214645 
	C306.707489,230.598907 308.171631,229.826035 309.730011,229.390778 
	C337.840393,221.539276 365.880249,213.415558 394.112579,206.027908 
	C410.722382,201.681549 425.491730,194.653473 437.190643,181.860474 
	C440.763672,177.953308 440.738312,177.841965 437.965424,173.782455 
	C437.450623,174.206955 436.941040,174.622833 436.436066,175.044174 
	C426.363434,183.448029 416.403290,192.087418 403.403412,195.761444 
	C371.363129,204.816696 339.298157,213.784836 307.220856,222.707993 
	C305.730652,223.122543 304.024628,222.761169 302.419098,222.761169 
	C303.489227,221.181976 304.574097,220.444565 305.753113,219.917969 
	C331.093872,208.599701 356.272736,196.894516 381.854401,186.148560 
	C399.207153,178.859283 414.960724,170.077515 425.385162,153.678818 
	C427.357849,150.575607 427.490265,148.470032 424.575195,146.140091 
	C423.370880,147.512421 422.306396,148.785675 421.178955,150.000488 
	C412.799866,159.029068 404.493561,168.107269 392.884430,173.253403 
	C363.127533,186.444168 333.417328,199.740250 303.659943,212.929810 
	C302.069519,213.634735 300.216553,213.747345 298.485809,214.135681 
	C299.252106,212.190430 300.272522,211.116486 301.485718,210.346024 
	C325.142883,195.321945 348.581818,179.933594 372.584351,165.481628 
	C387.892151,156.264816 400.904083,145.349121 408.600586,128.891174 
	C410.011688,125.873688 411.098511,123.043556 406.991638,120.780846 
	C405.556030,122.963432 404.310455,125.320190 402.636932,127.318535 
	C396.492920,134.655121 391.405090,143.642136 383.760345,148.819473 
	C355.226257,168.143951 325.840393,186.210983 296.750488,204.712723 
	C295.775543,205.332809 294.547882,205.555573 293.438019,205.963547 
	C293.191040,205.611359 292.944061,205.259171 292.697083,204.906982 
	C293.845764,203.647675 294.880188,202.256317 296.160126,201.148697 
	C318.167297,182.104141 339.987396,162.834366 362.321503,144.180267 
	C374.648468,133.884430 384.137512,122.085396 388.340179,106.382881 
	C389.172607,103.272888 390.290497,100.324585 385.821381,98.275841 
	C384.449707,101.186111 383.059448,103.925209 381.848663,106.741470 
	C376.980011,118.065956 370.138214,127.856491 360.652588,135.903366 
	C342.894501,150.967941 325.376068,166.314743 307.732269,181.514374 
	C301.006561,187.308350 294.210266,193.020370 287.446136,198.769730 
	C286.906799,198.434250 286.367432,198.098785 285.828094,197.763306 
	C286.842712,196.082840 287.644318,194.220016 288.903687,192.749161 
	C309.452789,168.749664 330.028595,144.772842 350.668121,120.851089 
	C359.670898,110.416679 364.175446,98.223175 364.997040,84.634926 
	C365.114777,82.687187 363.671112,80.645035 362.950073,78.646576 
	C362.419159,78.770729 361.888245,78.894882 361.357361,79.019035 
	C360.899139,80.538834 360.430481,82.055565 359.984406,83.578911 
	C356.301514,96.156410 352.317078,108.425148 343.203735,118.578728 
	C329.655334,133.673615 316.749023,149.343933 303.524261,164.730530 
	C295.644745,173.898071 287.678772,182.991318 279.751709,192.117981 
	C279.206329,191.848175 278.660950,191.578384 278.115570,191.308578 
	C278.772400,189.675674 279.201904,187.900772 280.119965,186.431030 
	C295.298462,162.131439 310.338562,137.741608 325.842865,113.650795 
	C334.511353,100.181541 339.897949,86.037430 339.113068,69.776665 
	C338.938843,66.167755 337.842743,64.117271 334.132080,63.368111 
	C333.736847,66.297203 333.276978,69.217064 332.958069,72.152245 
	C331.544250,85.164482 327.801178,97.275818 320.402008,108.289360 
	C313.567963,118.461685 307.327515,129.032532 300.814545,139.420898 
	C291.665894,154.013214 282.530945,168.614273 273.309174,183.160294 
	C272.530426,184.388687 271.141144,185.230011 270.035492,186.251175 
	C269.645416,185.857101 269.255310,185.463028 268.865204,185.068970 
	C269.427704,183.552887 269.921814,182.007248 270.562775,180.525116 
	C281.589264,155.028381 292.297821,129.386566 303.800110,104.106003 
	C310.738068,88.857315 314.143921,73.552628 310.355255,56.936260 
	C309.632660,53.767033 308.495026,52.234646 304.989746,52.218113 
	C304.989746,56.661747 304.808350,60.990513 305.025269,65.299225 
	C305.578094,76.278656 303.248901,86.616493 298.878174,96.644615 
	C288.444794,120.582947 278.170746,144.590698 267.792480,168.553146 
	C265.715088,173.349686 263.460602,178.069550 261.287750,182.824768 
	C260.703064,182.680542 260.118408,182.536301 259.533722,182.392075 
	C259.769501,180.179657 259.729553,177.895599 260.282990,175.765732 
	C267.042114,149.754166 273.594238,123.683144 280.818054,97.800018 
	C285.438019,81.246483 286.754486,65.066925 280.330658,48.701988 
	C278.989227,45.284695 277.314270,44.463799 273.935913,45.418995 
	C274.544617,48.412079 275.189117,51.128887 275.639679,53.877483 
	C277.296661,63.986351 279.072479,73.971992 276.295990,84.322990 
	C269.115997,111.090347 262.385803,137.978271 255.454483,164.812485 
	C254.169922,169.785583 252.784668,174.732681 251.445892,179.691772 
	C250.876831,179.652222 250.307770,179.612671 249.738693,179.573120 
	C249.487030,177.998672 248.915359,176.398666 249.038757,174.854187 
	C249.592468,167.924545 250.310272,161.007202 251.031387,154.091919 
	C252.250519,142.401062 253.743988,130.733810 254.708069,119.022568 
	C256.026428,103.007790 258.273773,86.901505 257.551483,70.950882 
	C257.130646,61.657047 251.767883,52.560879 248.374222,43.470768 
	C248.057297,42.621906 245.928238,42.251682 244.590240,42.098434 
	C244.170471,42.050354 243.585800,43.441902 243.288910,44.979221 
M251.164871,497.519409 
	C251.164871,493.356781 251.164871,489.194122 251.164871,485.031494 
	C253.145004,486.545410 253.940063,488.123718 254.578735,489.762970 
	C261.766296,508.210846 269.107666,526.602356 275.977295,545.168213 
	C277.737701,549.925842 281.003387,548.784668 284.301880,549.086670 
	C287.592346,549.388000 289.024414,548.308594 290.256439,544.985413 
	C296.053345,529.349182 302.302948,513.880554 308.414307,498.361267 
	C310.112427,494.049011 311.890106,489.768005 313.631287,485.472656 
	C314.068878,485.575775 314.506439,485.678894 314.944031,485.782043 
	C314.944031,506.773438 314.944031,527.764832 314.944031,548.791809 
	C319.950562,548.791809 324.370239,548.791809 328.770966,548.791809 
	C328.770966,523.015198 328.770966,497.487457 328.770966,472.039917 
	C319.736969,472.039917 311.098206,472.039917 302.487305,472.039917 
	C296.116150,489.223999 289.814545,506.220459 283.023468,524.537109 
	C281.927246,521.557739 281.411621,520.179382 280.912079,518.795166 
	C275.649139,504.211792 270.428802,489.612701 265.057037,475.069519 
	C264.590393,473.806091 263.157532,472.015747 262.127045,471.984131 
	C253.873413,471.731140 245.608627,471.842743 237.297653,471.842743 
	C237.297653,497.882721 237.297653,523.284729 237.297653,548.735718 
	C241.996674,548.735718 246.392548,548.735718 251.164795,548.735718 
	C251.164795,531.794556 251.164795,515.154846 251.164871,497.519409 
M170.319336,471.960571 
	C166.032074,471.960571 161.744812,471.960571 157.268280,471.960571 
	C157.268280,497.838531 157.268280,523.231262 157.268280,548.700806 
	C162.922409,548.700806 168.301895,548.700806 173.920654,548.700806 
	C173.920654,523.887268 173.951736,499.411377 173.808914,474.936523 
	C173.803101,473.940125 172.158340,472.953278 170.319336,471.960571 
M198.078491,493.500122 
	C198.078491,511.925842 198.078491,530.351562 198.078491,548.632935 
	C204.094116,548.632935 209.480133,548.632935 214.753540,548.632935 
	C214.753540,522.957092 214.753540,497.688446 214.753540,472.274536 
	C209.122528,472.274536 203.745041,472.274536 198.078506,472.274536 
	C198.078506,479.223297 198.078506,485.861755 198.078491,493.500122 
M340.370117,601.542664 
	C346.834595,601.107727 353.299072,600.672791 359.788391,600.236206 
	C359.788391,595.766113 359.788391,591.018677 359.788391,585.948364 
	C355.567902,585.948364 351.605743,585.861084 347.653046,586.015198 
	C346.764008,586.049927 345.907837,586.927185 345.036530,587.416565 
	C345.985046,588.005066 346.888947,588.988647 347.891144,589.101807 
	C350.152222,589.357178 352.461914,589.182007 356.004852,589.182007 
	C354.590546,591.957520 354.004852,594.274841 352.553345,595.726440 
	C348.876434,599.403442 340.453064,598.788269 337.207031,594.946533 
	C333.560364,590.630676 334.203705,581.644531 338.413025,578.100952 
	C342.834961,574.378418 350.217407,575.304810 353.987488,579.756104 
	C355.027222,580.983765 356.961426,581.453857 359.344330,582.732544 
	C357.417969,574.638611 352.398590,571.615601 343.660858,571.957886 
	C336.938416,572.221130 330.909973,577.274780 329.972321,583.432983 
	C328.596802,592.466614 331.698975,598.174316 340.370117,601.542664 
M317.987854,590.778442 
	C317.911835,591.669006 317.835785,592.559631 317.759735,593.450195 
	C313.008484,588.224304 309.073578,582.774048 305.582245,577.053101 
	C303.285034,573.288940 300.630737,571.625549 296.309265,573.402527 
	C296.309265,582.513611 296.309265,591.590454 296.309265,600.823425 
	C297.955200,600.823425 299.358246,600.823425 301.346710,600.823425 
	C301.346710,593.787231 301.346710,586.954529 301.346710,580.121887 
	C306.444489,585.562622 310.690857,591.190979 314.336914,597.184509 
	C316.519318,600.772034 318.953278,601.882019 322.724091,600.577515 
	C322.724091,591.286438 322.724091,582.206726 322.724091,572.803894 
	C321.031219,572.928101 319.649414,573.029419 317.988098,573.151306 
	C317.988098,578.989807 317.988098,584.456543 317.987854,590.778442 
M258.069214,583.139587 
	C258.027252,584.635010 257.917297,586.132141 257.955139,587.625549 
	C258.114319,593.914490 261.188263,598.309143 266.917450,600.728577 
	C273.587982,603.545471 281.893066,602.034790 286.300385,597.191895 
	C290.622955,592.442017 291.233002,586.826965 289.014374,581.037354 
	C286.605042,574.750122 281.560211,572.195374 274.994965,571.905029 
	C266.938080,571.548828 261.254395,574.730225 258.069214,583.139587 
M136.585358,602.023499 
	C138.686630,601.734314 140.816528,601.577087 142.883179,601.128357 
	C147.176804,600.196411 150.118027,598.002258 150.079605,593.073242 
	C150.041260,588.152893 146.716873,586.683899 142.754761,585.811951 
	C139.554138,585.107666 136.267441,584.676025 133.176346,583.649475 
	C131.892670,583.223267 130.125412,581.522705 130.173889,580.475525 
	C130.241287,579.019409 131.676102,576.542603 132.758270,576.410583 
	C136.802872,575.917358 141.361877,574.293030 144.225372,579.407349 
	C144.852982,580.528198 146.980560,580.809204 148.895004,581.698975 
	C149.224335,576.727722 147.071564,574.161987 143.788269,573.149841 
	C140.713409,572.201965 137.295486,571.984802 134.045715,572.073792 
	C128.840225,572.216187 125.127090,575.760620 124.946793,580.127197 
	C124.767326,584.473328 127.220345,586.845703 132.887527,587.950439 
	C136.113708,588.579285 139.384125,589.127136 142.489090,590.152161 
	C143.566376,590.507751 144.779068,592.136658 144.887222,593.282349 
	C145.000885,594.486450 144.197144,596.230591 143.215408,597.001953 
	C139.900253,599.606812 131.720032,597.923340 129.163025,594.640686 
	C128.090164,593.263306 126.318428,592.430298 124.864403,591.349854 
	C124.620811,598.535156 127.724724,601.042969 136.585358,602.023499 
M66.620308,268.039276 
	C85.560562,265.569000 104.500824,263.098694 123.441078,260.628418 
	C123.430687,260.507751 123.420288,260.387085 123.409897,260.266418 
	C100.399582,260.266418 77.389267,260.266418 54.251286,260.266418 
	C54.251286,263.615875 54.251286,266.690308 54.251286,269.862701 
	C58.252697,269.241852 61.990093,268.661957 66.620308,268.039276 
M178.072845,592.577148 
	C178.072845,595.346985 178.072845,598.116760 178.072845,601.160522 
	C180.154404,600.983093 181.563202,600.862976 182.893707,600.749573 
	C182.893707,591.289612 182.893707,582.200928 182.893707,573.126465 
	C181.202316,573.126465 179.804001,573.126465 178.013245,573.126465 
	C178.013245,576.828186 178.013245,580.258728 178.013245,583.842529 
	C172.538956,583.842529 167.471481,583.842529 161.990051,583.842529 
	C161.990051,580.196045 161.990051,576.769958 161.990051,573.096252 
	C160.195450,573.096252 158.815796,573.096252 157.222076,573.096252 
	C157.222076,582.417236 157.222076,591.502441 157.222076,600.775269 
	C158.839142,600.775269 160.222244,600.775269 162.121597,600.775269 
	C162.121597,596.459778 162.121597,592.383362 162.121597,588.045532 
	C166.776566,588.045532 170.926834,588.235229 175.049973,587.982605 
	C178.089462,587.796387 178.287903,589.399902 178.072845,592.577148 
M415.208466,267.151001 
	C420.361633,268.094604 425.514801,269.038239 430.943665,270.032349 
	C430.943665,266.712524 430.943665,263.633972 430.943665,260.305908 
	C408.161652,260.305908 385.539825,260.305908 362.918030,260.305908 
	C362.911011,260.412720 362.904022,260.519562 362.897003,260.626373 
	C380.037750,262.773041 397.178528,264.919708 415.208466,267.151001 
M218.492126,597.067200 
	C216.061920,597.067200 213.631699,597.067200 210.827286,597.067200 
	C210.827286,588.715271 210.827286,580.956360 210.827286,573.065674 
	C209.038162,573.065674 207.636292,573.065674 206.191376,573.065674 
	C206.191376,582.494507 206.191376,591.683350 206.191376,600.784668 
	C213.330109,600.784668 220.095947,600.784668 226.861801,600.784668 
	C227.121780,600.369507 227.381760,599.954285 227.641739,599.539124 
	C226.576248,598.716003 225.618057,597.489075 224.418549,597.170410 
	C222.863693,596.757385 221.116577,597.068054 218.492126,597.067200 
M236.369415,572.847107 
	C234.558685,572.805542 232.727295,572.372620 232.776962,575.373230 
	C232.916489,583.803223 232.825638,592.237000 232.825638,600.855225 
	C240.084320,600.855225 246.840805,600.855225 253.597290,600.855225 
	C253.887161,600.470703 254.177032,600.086121 254.466904,599.701599 
	C253.395294,598.823853 252.369507,597.264343 251.243988,597.188782 
	C246.852173,596.893555 242.428802,597.068298 237.303619,597.068298 
	C237.303619,588.539978 237.303619,580.780212 236.369415,572.847107 
M192.001160,577.650269 
	C192.001160,585.374573 192.001160,593.098877 192.001160,601.101501 
	C194.050156,600.963989 195.438812,600.870789 196.827911,600.777588 
	C196.827911,591.345459 196.827911,582.295105 196.827911,573.225586 
	C193.499084,572.270996 191.435669,572.714050 192.001160,577.650269 
z"/>
<path fill="#0B683B" opacity="1.000000" stroke="none" 
	d="
M243.182755,44.576866 
	C243.585800,43.441902 244.170471,42.050354 244.590240,42.098434 
	C245.928238,42.251682 248.057297,42.621906 248.374222,43.470768 
	C251.767883,52.560879 257.130646,61.657047 257.551483,70.950882 
	C258.273773,86.901505 256.026428,103.007790 254.708069,119.022568 
	C253.743988,130.733810 252.250519,142.401062 251.031387,154.091919 
	C250.310272,161.007202 249.592468,167.924545 249.038757,174.854187 
	C248.915359,176.398666 249.487030,177.998672 249.738693,179.573120 
	C250.307770,179.612671 250.876831,179.652222 251.445892,179.691772 
	C252.784668,174.732681 254.169922,169.785583 255.454483,164.812485 
	C262.385803,137.978271 269.115997,111.090347 276.295990,84.322990 
	C279.072479,73.971992 277.296661,63.986351 275.639679,53.877483 
	C275.189117,51.128887 274.544617,48.412079 273.935913,45.418995 
	C277.314270,44.463799 278.989227,45.284695 280.330658,48.701988 
	C286.754486,65.066925 285.438019,81.246483 280.818054,97.800018 
	C273.594238,123.683144 267.042114,149.754166 260.282990,175.765732 
	C259.729553,177.895599 259.769501,180.179657 259.533722,182.392075 
	C260.118408,182.536301 260.703064,182.680542 261.287750,182.824768 
	C263.460602,178.069550 265.715088,173.349686 267.792480,168.553146 
	C278.170746,144.590698 288.444794,120.582947 298.878174,96.644615 
	C303.248901,86.616493 305.578094,76.278656 305.025269,65.299225 
	C304.808350,60.990513 304.989746,56.661747 304.989746,52.218113 
	C308.495026,52.234646 309.632660,53.767033 310.355255,56.936260 
	C314.143921,73.552628 310.738068,88.857315 303.800110,104.106003 
	C292.297821,129.386566 281.589264,155.028381 270.562775,180.525116 
	C269.921814,182.007248 269.427704,183.552887 268.865204,185.068970 
	C269.255310,185.463028 269.645416,185.857101 270.035492,186.251175 
	C271.141144,185.230011 272.530426,184.388687 273.309174,183.160294 
	C282.530945,168.614273 291.665894,154.013214 300.814545,139.420898 
	C307.327515,129.032532 313.567963,118.461685 320.402008,108.289360 
	C327.801178,97.275818 331.544250,85.164482 332.958069,72.152245 
	C333.276978,69.217064 333.736847,66.297203 334.132080,63.368111 
	C337.842743,64.117271 338.938843,66.167755 339.113068,69.776665 
	C339.897949,86.037430 334.511353,100.181541 325.842865,113.650795 
	C310.338562,137.741608 295.298462,162.131439 280.119965,186.431030 
	C279.201904,187.900772 278.772400,189.675674 278.115570,191.308578 
	C278.660950,191.578384 279.206329,191.848175 279.751709,192.117981 
	C287.678772,182.991318 295.644745,173.898071 303.524261,164.730530 
	C316.749023,149.343933 329.655334,133.673615 343.203735,118.578728 
	C352.317078,108.425148 356.301514,96.156410 359.984406,83.578911 
	C360.430481,82.055565 360.899139,80.538834 361.357361,79.019035 
	C361.888245,78.894882 362.419159,78.770729 362.950073,78.646576 
	C363.671112,80.645035 365.114777,82.687187 364.997040,84.634926 
	C364.175446,98.223175 359.670898,110.416679 350.668121,120.851089 
	C330.028595,144.772842 309.452789,168.749664 288.903687,192.749161 
	C287.644318,194.220016 286.842712,196.082840 285.828094,197.763306 
	C286.367432,198.098785 286.906799,198.434250 287.446136,198.769730 
	C294.210266,193.020370 301.006561,187.308350 307.732269,181.514374 
	C325.376068,166.314743 342.894501,150.967941 360.652588,135.903366 
	C370.138214,127.856491 376.980011,118.065956 381.848663,106.741470 
	C383.059448,103.925209 384.449707,101.186111 385.821381,98.275841 
	C390.290497,100.324585 389.172607,103.272888 388.340179,106.382881 
	C384.137512,122.085396 374.648468,133.884430 362.321503,144.180267 
	C339.987396,162.834366 318.167297,182.104141 296.160126,201.148697 
	C294.880188,202.256317 293.845764,203.647675 292.697083,204.906982 
	C292.944061,205.259171 293.191040,205.611359 293.438019,205.963547 
	C294.547882,205.555573 295.775543,205.332809 296.750488,204.712723 
	C325.840393,186.210983 355.226257,168.143951 383.760345,148.819473 
	C391.405090,143.642136 396.492920,134.655121 402.636932,127.318535 
	C404.310455,125.320190 405.556030,122.963432 406.991638,120.780846 
	C411.098511,123.043556 410.011688,125.873688 408.600586,128.891174 
	C400.904083,145.349121 387.892151,156.264816 372.584351,165.481628 
	C348.581818,179.933594 325.142883,195.321945 301.485718,210.346024 
	C300.272522,211.116486 299.252106,212.190430 298.485809,214.135681 
	C300.216553,213.747345 302.069519,213.634735 303.659943,212.929810 
	C333.417328,199.740250 363.127533,186.444168 392.884430,173.253403 
	C404.493561,168.107269 412.799866,159.029068 421.178955,150.000488 
	C422.306396,148.785675 423.370880,147.512421 424.575195,146.140091 
	C427.490265,148.470032 427.357849,150.575607 425.385162,153.678818 
	C414.960724,170.077515 399.207153,178.859283 381.854401,186.148560 
	C356.272736,196.894516 331.093872,208.599701 305.753113,219.917969 
	C304.574097,220.444565 303.489227,221.181976 302.419098,222.761169 
	C304.024628,222.761169 305.730652,223.122543 307.220856,222.707993 
	C339.298157,213.784836 371.363129,204.816696 403.403412,195.761444 
	C416.403290,192.087418 426.363434,183.448029 436.436066,175.044174 
	C436.941040,174.622833 437.450623,174.206955 437.965424,173.782455 
	C440.738312,177.841965 440.763672,177.953308 437.190643,181.860474 
	C425.491730,194.653473 410.722382,201.681549 394.112579,206.027908 
	C365.880249,213.415558 337.840393,221.539276 309.730011,229.390778 
	C308.171631,229.826035 306.707489,230.598907 305.199493,231.214645 
	C305.258911,231.736893 305.318329,232.259155 305.377747,232.781403 
	C309.745911,232.398483 314.133087,232.163544 318.478729,231.605453 
	C332.576263,229.794952 346.666656,227.923965 360.744781,225.968338 
	C379.397949,223.377197 398.190155,221.438004 416.612854,217.694351 
	C424.933899,216.003464 432.533417,210.688110 440.404327,206.900803 
	C442.763885,205.765442 444.934387,204.237213 447.276306,202.838318 
	C449.221863,206.218903 448.253082,208.155243 445.425690,210.471375 
	C432.159576,221.338638 417.055634,226.763474 400.006134,228.179779 
	C386.183594,229.328018 372.479736,231.868439 358.708160,233.676849 
	C344.608032,235.528412 330.486633,237.217300 316.381500,239.031616 
	C313.190186,239.442108 310.027649,240.076523 306.851868,240.607864 
	C306.850677,241.085739 306.849518,241.563614 306.848358,242.041489 
	C308.794495,242.344788 310.737732,242.887726 312.687225,242.911011 
	C322.518860,243.028519 332.353027,242.936508 342.184662,243.055527 
	C363.148682,243.309296 384.133087,243.172775 405.067780,244.114746 
	C419.607971,244.768982 432.913666,241.375854 445.871216,235.452377 
	C447.367981,234.768143 448.922211,234.207062 450.462952,233.623474 
	C450.872864,233.468185 451.331421,233.441360 451.767670,233.355545 
	C452.184021,233.688507 452.600403,234.021454 453.016754,234.354401 
	C451.598755,236.323654 450.595032,238.939285 448.695251,240.156845 
	C436.717773,247.833206 423.703674,251.596603 409.254547,251.169876 
	C390.936859,250.628845 372.593201,250.957550 354.260681,250.935013 
	C338.820129,250.916031 323.379517,250.931107 307.336884,250.931107 
	C307.201141,253.366928 307.031158,256.416931 306.845917,259.740601 
	C348.323425,264.925842 389.529633,269.100098 430.782776,275.970886 
	C429.729675,283.558563 428.809326,290.189514 427.952820,296.360809 
	C405.189941,290.090027 382.672424,283.889526 360.156525,277.683197 
	C343.645020,273.131897 327.113678,268.650208 310.640289,263.964722 
	C306.365906,262.748993 304.763947,264.050446 305.078583,268.754944 
	C323.787476,273.840485 342.549286,278.862457 361.265320,284.049652 
	C380.183441,289.292877 399.138000,294.431427 417.912079,300.155579 
	C426.463440,302.762939 426.304016,303.358459 423.630096,311.943176 
	C422.649292,315.092010 421.559296,318.207184 420.491577,321.328308 
	C420.277710,321.953491 419.938812,322.535919 420.024719,322.352020 
	C381.264526,305.594147 342.527283,288.846222 303.593811,272.013428 
	C302.680481,274.137726 302.037567,275.633148 301.223572,277.526428 
	C312.513275,282.413910 323.551910,287.221191 334.613373,291.975372 
	C357.856750,301.965302 381.148315,311.844452 404.331116,321.972748 
	C408.804352,323.927032 412.871002,326.811981 417.447784,329.453796 
	C413.977966,336.313141 410.849762,342.497131 407.948792,348.231903 
	C373.232117,323.868195 335.809052,303.922546 299.988281,280.963654 
	C298.736267,282.821991 297.841125,284.150635 296.586700,286.012604 
	C304.647644,290.950073 312.490967,295.760345 320.340240,300.560883 
	C345.071594,315.686401 369.844971,330.743988 394.492676,346.004639 
	C397.968231,348.156525 400.834198,351.292999 404.265778,354.215118 
	C399.917145,360.353607 395.834106,366.117218 392.046539,371.463745 
	C361.802765,341.912079 327.204376,317.617401 294.679962,289.062347 
	C293.524109,290.831238 292.558838,292.308472 291.349304,294.159515 
	C300.378601,301.624207 309.714569,309.354218 319.063324,317.068756 
	C338.175659,332.840118 357.383728,348.497498 376.340912,364.453064 
	C380.440552,367.903595 383.647858,372.414337 387.598175,376.805817 
	C381.654358,382.158142 376.375366,386.911835 371.160645,391.607635 
	C363.831207,377.127991 350.900574,365.936859 339.709900,353.359161 
	C324.008087,335.711121 307.797577,318.516327 292.024292,300.930634 
	C289.263794,297.852936 287.297394,297.108032 284.117218,301.029877 
	C288.909729,306.340637 293.848511,311.842926 298.819092,317.316345 
	C318.279327,338.745209 337.822876,360.099274 357.143005,381.653687 
	C360.305664,385.182129 362.721893,389.457306 365.008728,393.646393 
	C365.704803,394.921478 365.487946,397.871368 364.531281,398.673950 
	C359.727478,402.703979 354.539886,406.276550 349.978149,409.647003 
	C330.536469,373.111877 304.771301,340.930328 282.643951,306.402924 
	C282.203003,305.714844 281.575775,305.146149 280.753998,304.196472 
	C279.299194,305.146545 277.889099,306.067444 276.026367,307.283936 
	C283.402863,318.172974 290.539124,328.703033 297.670929,339.236115 
	C310.228424,357.782501 322.929626,376.234528 335.235321,394.946533 
	C338.281403,399.578400 340.008636,405.071625 342.404297,410.139526 
	C343.712891,412.907867 342.553925,414.438446 340.100830,415.681335 
	C334.942657,418.294830 329.852234,421.041962 324.147034,424.042999 
	C323.531586,421.514954 323.287689,419.124725 322.381989,417.019196 
	C316.710022,403.833588 311.155182,390.587250 305.060364,377.596191 
	C294.804413,355.735504 284.176910,334.049072 273.690582,312.296631 
	C273.339630,311.568634 272.824921,310.919586 272.118805,309.814880 
	C270.572235,310.617584 269.039459,311.413147 267.154816,312.391357 
	C275.727020,330.178528 284.173340,347.579498 292.507080,365.034210 
	C299.916199,380.552307 307.671143,395.929779 314.399353,411.741272 
	C320.380188,425.796295 319.722198,426.295349 305.463989,431.273285 
	C302.843109,432.188324 300.231140,433.129059 297.792175,433.995056 
	C292.965942,401.913910 280.232086,372.344818 271.758575,341.586548 
	C269.746216,334.281921 267.312286,327.092255 265.010254,319.869476 
	C264.418488,318.012756 263.590912,316.231171 262.915344,314.525360 
	C258.637573,314.627350 257.497284,315.912048 258.811523,320.088776 
	C268.511719,350.916962 278.019806,381.806366 287.402557,412.732880 
	C289.025208,418.081390 289.989929,423.662659 290.848602,429.199982 
	C291.616516,434.151978 289.626190,436.267822 284.709351,437.077148 
	C279.665070,437.907501 274.658875,438.969147 270.084473,439.843781 
	C268.084351,398.354065 258.098541,358.079163 253.357864,316.703308 
	C250.789780,317.193268 249.202942,317.496002 247.246628,317.869232 
	C249.663895,333.922394 252.144958,349.688477 254.390778,365.488007 
	C257.414398,386.759521 260.264709,408.055725 263.154572,429.346100 
	C263.309692,430.488831 263.165466,431.676147 263.122040,432.841248 
	C262.823914,440.842407 262.817871,440.798370 255.030029,441.133484 
	C252.564987,441.239563 250.119141,441.755249 247.653732,441.899933 
	C245.339539,442.035706 243.011124,441.928986 241.303787,441.928986 
	C244.832092,401.215912 242.125900,360.526978 242.920059,319.902527 
	C242.929199,319.434784 242.696121,318.962372 242.532089,318.319672 
	C239.492828,317.811707 236.936829,317.491486 236.892624,321.966217 
	C236.744720,336.933716 236.204224,351.900024 236.236282,366.865875 
	C236.273315,384.158295 237.013840,401.451019 236.927841,418.740997 
	C236.891342,426.079987 235.529266,433.412384 234.700073,441.419434 
	C226.413834,440.818573 219.203430,440.295715 211.891632,439.765503 
	C220.337509,414.795105 221.239120,388.660095 225.777435,363.186768 
	C228.236267,349.385559 229.921890,335.442444 231.696899,321.530243 
	C231.871811,320.159424 230.226944,318.556458 229.426758,317.061218 
	C228.264206,318.298370 226.278595,319.407166 226.062714,320.791870 
	C222.881622,341.195129 220.005661,361.645599 216.910660,382.062653 
	C214.709595,396.582672 212.681061,411.146576 209.849426,425.548126 
	C207.301147,438.508575 206.154312,438.859467 193.620819,435.518951 
	C190.471588,434.679596 187.332886,433.800842 184.338623,432.981079 
	C195.415085,410.427948 200.301178,386.173798 207.899902,362.848267 
	C212.954437,347.332520 217.299347,331.585632 222.050293,315.645538 
	C220.161758,315.060059 218.498016,314.544281 216.376343,313.886536 
	C212.868408,325.470245 209.435440,336.794586 206.009720,348.121155 
	C199.331085,370.202911 192.769058,392.321075 185.889694,414.340088 
	C184.435883,418.993317 182.018097,423.392670 179.622452,427.672791 
	C178.983582,428.814270 176.470123,429.986298 175.352264,429.599243 
	C169.470764,427.562866 163.760696,425.031281 158.149475,422.736389 
	C173.024124,400.125702 182.149429,374.962982 193.980392,351.167419 
	C200.295059,338.466705 206.102158,325.513672 212.387421,312.144745 
	C210.736969,311.220642 209.238403,310.381561 207.315765,309.305023 
	C201.767273,320.988312 196.361481,332.329041 190.991882,343.686890 
	C181.317001,364.151276 171.832306,384.707703 161.947479,405.070007 
	C154.219223,420.989929 154.002365,420.887451 138.871490,411.778473 
	C137.200562,410.772552 135.555206,409.724182 134.273453,408.928528 
	C159.402573,376.267487 180.170319,341.062927 203.791962,307.083710 
	C201.949448,305.825409 200.544525,304.865936 198.775040,303.657501 
	C190.249084,316.450775 181.892319,328.989441 173.536301,341.528564 
	C162.285324,358.411957 151.132767,375.362305 139.719040,392.134918 
	C136.666702,396.620331 132.817368,400.563385 128.941284,405.227966 
	C123.207336,400.549042 118.015015,396.312134 113.244308,392.419220 
	C140.910767,361.831573 168.314774,331.534058 196.010468,300.914062 
	C194.268402,299.508026 193.038361,298.515228 191.349213,297.151886 
	C186.813431,302.122803 182.335556,306.968903 177.924484,311.875061 
	C158.461548,333.522552 139.056427,355.222290 119.521973,376.804993 
	C116.860550,379.745453 113.787666,382.433289 110.495613,384.621796 
	C109.251472,385.448853 106.143753,385.270813 105.096596,384.276062 
	C101.146774,380.523895 97.695007,376.247467 94.407600,372.560791 
	C125.969147,346.354309 157.478012,320.191559 189.100540,293.934448 
	C187.694977,292.192688 186.676422,290.930481 185.395844,289.343597 
	C153.434433,314.860046 123.224953,342.341522 90.224495,367.495392 
	C85.860962,360.989136 82.136536,355.435852 78.717995,350.338654 
	C113.846581,328.761444 148.539719,307.451752 183.452911,286.006866 
	C182.235764,284.084473 181.369781,282.716736 180.299133,281.025726 
	C145.508316,302.428589 110.797714,323.782104 75.744232,345.346558 
	C72.579880,338.708038 69.717827,332.703766 66.736259,326.448761 
	C104.089203,310.223083 141.285767,294.065338 178.414780,277.936920 
	C177.308502,272.312347 176.837845,272.079193 171.591263,274.371857 
	C139.492111,288.398621 107.403320,302.449219 75.284966,316.431854 
	C71.978493,317.871338 68.499748,318.915039 64.460670,320.373596 
	C62.503628,314.023499 60.641525,307.981476 58.594368,301.339020 
	C64.763618,299.565002 70.679367,297.803741 76.628403,296.163239 
	C108.264565,287.439056 139.898392,278.705872 171.563385,270.087341 
	C175.835251,268.924591 175.759827,266.709381 173.955704,263.217133 
	C135.172516,274.022583 96.484642,284.801483 57.340691,295.707458 
	C56.335033,288.884338 55.447193,282.860596 54.405052,275.789948 
	C94.150894,270.389313 133.645782,265.022766 173.115616,259.659668 
	C172.820724,249.983429 173.892456,251.060471 165.787277,250.883698 
	C141.190964,250.347244 116.598755,249.616501 92.006393,248.911087 
	C88.202477,248.801971 84.400444,248.494019 80.607307,248.165268 
	C63.898144,246.717133 47.944969,249.408646 32.789925,256.692535 
	C31.058392,257.524750 29.163317,258.016693 27.383167,258.652466 
	C26.290716,255.027573 27.702019,253.227875 30.799202,251.410660 
	C43.602928,243.898285 57.196545,240.315018 72.097336,240.913727 
	C89.210594,241.601364 106.347649,241.686966 123.473381,242.077240 
	C136.437454,242.372696 149.399551,242.754578 162.363510,243.056473 
	C165.870514,243.138153 169.381027,243.068878 172.889938,243.068878 
	C172.963760,242.589462 173.037598,242.110046 173.111420,241.630615 
	C169.272720,240.786407 165.459229,239.798218 161.591293,239.120758 
	C131.019760,233.766174 100.449707,228.401230 69.853096,223.192795 
	C58.220448,221.212601 46.887627,223.624481 35.630783,226.322891 
	C33.282089,226.885895 30.941956,227.484604 28.597876,228.066849 
	C28.202999,227.660889 27.808123,227.254944 27.413246,226.848984 
	C28.770273,225.232285 29.849607,222.638947 31.530428,222.161057 
	C40.838108,219.514587 50.195347,216.236694 59.726234,215.431564 
	C67.593048,214.766968 75.763397,217.008057 83.731476,218.360748 
	C106.040344,222.147995 128.311493,226.157013 150.603363,230.045044 
	C157.108124,231.179565 163.625763,232.245880 170.152985,233.241913 
	C171.641602,233.469070 173.194427,233.275345 174.717697,233.275345 
	C174.790756,232.825333 174.863815,232.375320 174.936859,231.925293 
	C168.611206,229.818924 162.297699,227.675217 155.957794,225.612625 
	C128.489288,216.676178 101.009697,207.773865 73.541183,198.837433 
	C60.698292,194.659210 47.698952,197.253738 34.337265,197.573822 
	C32.798473,193.939667 35.180241,192.774506 38.389992,192.078278 
	C55.134628,188.446152 71.309219,189.618317 87.647179,195.426620 
	C114.689774,205.040497 142.126114,213.547867 169.410797,222.477936 
	C171.804489,223.261383 174.303375,223.723434 176.753403,224.334763 
	C176.922348,223.948227 177.091309,223.561691 177.260254,223.175156 
	C176.478592,222.489975 175.800064,221.597641 174.900299,221.149612 
	C144.274567,205.899841 113.795860,190.336304 82.863251,175.734665 
	C75.353851,172.189850 66.378235,171.620865 58.001842,170.095139 
	C53.468346,169.269379 48.776611,169.312302 43.782684,168.935135 
	C43.988529,165.460724 45.641602,164.204681 48.986214,163.911728 
	C65.645859,162.452499 81.015732,165.858231 95.953758,173.648590 
	C122.632385,187.561829 149.779022,200.577774 176.737473,213.953812 
	C177.966415,214.563599 179.268570,215.025803 181.326035,214.677841 
	C180.280304,213.445541 179.439896,211.919342 178.158585,211.024246 
	C151.087158,192.112839 124.012413,173.205338 96.830490,154.453384 
	C86.796425,147.531189 75.064423,145.170502 63.344727,142.949951 
	C61.577229,142.615082 59.827747,142.185135 57.764816,141.732162 
	C59.086609,138.762436 60.187347,137.523270 64.178780,137.521988 
	C85.287987,137.515259 101.444809,148.319550 117.596375,159.954834 
	C138.596069,175.082657 160.009659,189.636246 181.269836,204.401382 
	C182.669601,205.373520 184.279175,206.043518 186.612808,205.944366 
	C185.981079,204.964722 185.516098,203.808655 184.693390,203.031052 
	C160.140198,179.823944 135.947571,156.209198 110.716286,133.762314 
	C103.572067,127.406502 93.415253,124.404251 84.561455,120.022896 
	C81.926369,118.718910 79.023636,117.955772 76.058777,116.877640 
	C77.511475,113.641144 79.192734,113.095970 82.698357,113.558121 
	C103.122475,116.250648 117.322296,128.828705 131.279312,142.411133 
	C149.764297,160.400024 168.782181,177.841507 187.589569,195.498520 
	C189.000122,196.822815 190.558807,197.989349 192.048630,199.229218 
	C192.515610,198.955902 192.982574,198.682587 193.449539,198.409271 
	C192.482925,196.695007 191.714478,194.826279 190.517990,193.291199 
	C181.835693,182.151962 173.049866,171.093521 164.330292,159.983215 
	C154.585342,147.566360 144.705109,135.250427 135.203461,122.649483 
	C127.285873,112.149300 117.094978,104.719810 105.503014,98.925568 
	C103.014153,97.681519 100.585533,96.316948 97.969521,94.922813 
	C100.117119,91.162109 102.704552,91.861801 105.769615,92.828064 
	C121.285484,97.719398 132.812698,107.616982 142.587875,120.352577 
	C160.398346,143.556900 178.680832,166.399063 196.799957,189.365829 
	C197.712585,190.522644 198.942398,191.429230 201.014359,191.813034 
	C200.780594,190.803543 200.768524,189.669373 200.280960,188.802643 
	C184.365585,160.510818 168.498917,132.190842 152.405945,104.000092 
	C145.525070,91.946594 134.254562,84.324562 122.970284,76.506165 
	C125.122353,73.545502 127.220482,73.366188 130.485825,74.922150 
	C147.609406,83.081779 157.738205,97.378616 166.451675,113.511559 
	C179.121216,136.969177 192.641357,159.967484 205.812225,183.154007 
	C206.536026,184.428238 207.383057,185.632477 209.307205,186.755234 
	C209.307205,185.258499 209.737289,183.600006 209.244125,182.288757 
	C197.798203,151.856018 186.663498,121.293930 174.436157,91.175995 
	C171.368088,83.618858 164.964096,77.320549 159.639236,70.815331 
	C156.967529,67.551399 153.275711,65.122475 150.079926,62.346058 
	C153.285568,58.791809 155.260361,59.330341 157.867386,61.054695 
	C173.012238,71.071884 181.192307,85.672699 187.117523,102.390511 
	C196.158554,127.899406 206.146683,153.073044 215.795975,178.364883 
	C216.376114,179.885513 217.514343,181.193222 218.392883,182.599991 
	C218.967484,182.340317 219.542068,182.080627 220.116653,181.820953 
	C218.722198,174.784073 217.410294,167.729645 215.918381,160.713486 
	C210.670197,136.032333 205.204453,111.396255 200.138824,86.677994 
	C197.578232,74.183380 190.220963,64.459366 183.004044,54.560223 
	C182.030838,53.225338 181.058884,51.889542 180.147705,50.638405 
	C183.358887,48.032539 185.578217,49.499916 187.986023,51.844582 
	C199.406021,62.965153 206.078033,76.298180 209.065842,92.033905 
	C214.328781,119.751740 220.412415,147.314178 226.233032,174.924683 
	C226.614746,176.735397 227.680038,178.401993 228.427368,180.135635 
	C228.888153,179.987778 229.348938,179.839935 229.809723,179.692093 
	C229.809723,173.956070 230.023315,168.210175 229.758881,162.486374 
	C229.376724,154.213669 228.509460,145.963882 228.096420,137.691971 
	C227.251389,120.769142 226.345200,103.844147 225.890793,86.908600 
	C225.493134,72.087105 218.822708,59.558960 212.342270,46.887421 
	C211.964920,46.149544 211.561554,45.424957 211.126709,44.612762 
	C214.352249,42.125183 216.439957,43.563385 218.452911,46.309742 
	C227.809021,59.074692 232.843307,73.012405 233.244186,89.148956 
	C233.898895,115.503349 235.777191,141.828110 237.210815,168.161469 
	C237.404526,171.719299 238.012817,175.254562 239.635574,179.190277 
	C240.346481,177.614517 241.519669,176.088089 241.693970,174.455063 
	C242.907379,163.086288 243.848221,151.688766 245.001160,140.313095 
	C246.852966,122.042084 248.813675,103.782143 250.703384,85.514938 
	C251.707397,75.809410 250.532440,66.330254 247.507141,57.079632 
	C246.179642,53.020458 244.699661,49.011162 243.182755,44.576866 
M302.056213,242.455811 
	C301.401764,230.307434 297.056824,219.527039 289.944122,209.771591 
	C269.679077,181.976974 232.640305,175.390549 205.142090,194.900803 
	C189.184265,206.223083 180.768356,222.129547 178.015961,242.118942 
	C178.140137,248.874390 177.273972,255.825394 178.562576,262.350922 
	C183.715698,288.446472 204.506805,309.207520 230.179733,312.544830 
	C254.741425,315.737610 277.649719,308.875610 294.375183,281.049164 
	C301.266510,269.583954 304.217804,256.897278 302.056213,242.455811 
z"/>
<path fill="#076537" opacity="1.000000" stroke="none" 
	d="
M251.164825,498.017273 
	C251.164795,515.154846 251.164795,531.794556 251.164795,548.735718 
	C246.392548,548.735718 241.996674,548.735718 237.297653,548.735718 
	C237.297653,523.284729 237.297653,497.882721 237.297653,471.842743 
	C245.608627,471.842743 253.873413,471.731140 262.127045,471.984131 
	C263.157532,472.015747 264.590393,473.806091 265.057037,475.069519 
	C270.428802,489.612701 275.649139,504.211792 280.912079,518.795166 
	C281.411621,520.179382 281.927246,521.557739 283.023468,524.537109 
	C289.814545,506.220459 296.116150,489.223999 302.487305,472.039917 
	C311.098206,472.039917 319.736969,472.039917 328.770966,472.039917 
	C328.770966,497.487457 328.770966,523.015198 328.770966,548.791809 
	C324.370239,548.791809 319.950562,548.791809 314.944031,548.791809 
	C314.944031,527.764832 314.944031,506.773438 314.944031,485.782043 
	C314.506439,485.678894 314.068878,485.575775 313.631287,485.472656 
	C311.890106,489.768005 310.112427,494.049011 308.414307,498.361267 
	C302.302948,513.880554 296.053345,529.349182 290.256439,544.985413 
	C289.024414,548.308594 287.592346,549.388000 284.301880,549.086670 
	C281.003387,548.784668 277.737701,549.925842 275.977295,545.168213 
	C269.107666,526.602356 261.766296,508.210846 254.578735,489.762970 
	C253.940063,488.123718 253.145004,486.545410 251.164871,485.031494 
	C251.164871,489.194122 251.164871,493.356781 251.164825,498.017273 
z"/>
<path fill="#076538" opacity="1.000000" stroke="none" 
	d="
M170.798264,471.961273 
	C172.158340,472.953278 173.803101,473.940125 173.808914,474.936523 
	C173.951736,499.411377 173.920654,523.887268 173.920654,548.700806 
	C168.301895,548.700806 162.922409,548.700806 157.268280,548.700806 
	C157.268280,523.231262 157.268280,497.838531 157.268280,471.960571 
	C161.744812,471.960571 166.032074,471.960571 170.798264,471.961273 
z"/>
<path fill="#076538" opacity="1.000000" stroke="none" 
	d="
M198.078491,493.000153 
	C198.078506,485.861755 198.078506,479.223297 198.078506,472.274536 
	C203.745041,472.274536 209.122528,472.274536 214.753540,472.274536 
	C214.753540,497.688446 214.753540,522.957092 214.753540,548.632935 
	C209.480133,548.632935 204.094116,548.632935 198.078491,548.632935 
	C198.078491,530.351562 198.078491,511.925842 198.078491,493.000153 
z"/>
<path fill="#0E693D" opacity="1.000000" stroke="none" 
	d="
M340.000122,601.372681 
	C331.698975,598.174316 328.596802,592.466614 329.972321,583.432983 
	C330.909973,577.274780 336.938416,572.221130 343.660858,571.957886 
	C352.398590,571.615601 357.417969,574.638611 359.344330,582.732544 
	C356.961426,581.453857 355.027222,580.983765 353.987488,579.756104 
	C350.217407,575.304810 342.834961,574.378418 338.413025,578.100952 
	C334.203705,581.644531 333.560364,590.630676 337.207031,594.946533 
	C340.453064,598.788269 348.876434,599.403442 352.553345,595.726440 
	C354.004852,594.274841 354.590546,591.957520 356.004852,589.182007 
	C352.461914,589.182007 350.152222,589.357178 347.891144,589.101807 
	C346.888947,588.988647 345.985046,588.005066 345.036560,587.416626 
	C345.907837,586.927185 346.764008,586.049927 347.653046,586.015198 
	C351.605743,585.861084 355.567902,585.948364 359.788391,585.948364 
	C359.788391,591.018677 359.788391,595.766113 359.788391,600.236206 
	C353.299072,600.672791 346.834595,601.107727 340.000122,601.372681 
z"/>
<path fill="#0C683C" opacity="1.000000" stroke="none" 
	d="
M317.987976,590.350891 
	C317.988098,584.456543 317.988098,578.989807 317.988098,573.151306 
	C319.649414,573.029419 321.031219,572.928101 322.724091,572.803894 
	C322.724091,582.206726 322.724091,591.286438 322.724091,600.577515 
	C318.953278,601.882019 316.519318,600.772034 314.336914,597.184509 
	C310.690857,591.190979 306.444489,585.562622 301.346710,580.121887 
	C301.346710,586.954529 301.346710,593.787231 301.346710,600.823425 
	C299.358246,600.823425 297.955200,600.823425 296.309265,600.823425 
	C296.309265,591.590454 296.309265,582.513611 296.309265,573.402527 
	C300.630737,571.625549 303.285034,573.288940 305.582245,577.053101 
	C309.073578,582.774048 313.008484,588.224304 317.759735,593.450195 
	C317.835785,592.559631 317.911835,591.669006 317.987976,590.350891 
z"/>
<path fill="#106B3F" opacity="1.000000" stroke="none" 
	d="
M258.145630,582.731445 
	C261.254395,574.730225 266.938080,571.548828 274.994965,571.905029 
	C281.560211,572.195374 286.605042,574.750122 289.014374,581.037354 
	C291.233002,586.826965 290.622955,592.442017 286.300385,597.191895 
	C281.893066,602.034790 273.587982,603.545471 266.917450,600.728577 
	C261.188263,598.309143 258.114319,593.914490 257.955139,587.625549 
	C257.917297,586.132141 258.027252,584.635010 258.145630,582.731445 
M284.964539,585.743408 
	C283.276825,577.853760 278.831421,574.715027 271.168823,576.002747 
	C266.052948,576.862427 262.676819,581.830444 263.055389,587.941650 
	C263.444672,594.225952 267.658447,598.032410 274.172791,597.984375 
	C280.814026,597.935425 284.583557,593.955994 284.964539,585.743408 
z"/>
<path fill="#126C41" opacity="1.000000" stroke="none" 
	d="
M136.148788,602.021362 
	C127.724724,601.042969 124.620811,598.535156 124.864403,591.349854 
	C126.318428,592.430298 128.090164,593.263306 129.163025,594.640686 
	C131.720032,597.923340 139.900253,599.606812 143.215408,597.001953 
	C144.197144,596.230591 145.000885,594.486450 144.887222,593.282349 
	C144.779068,592.136658 143.566376,590.507751 142.489090,590.152161 
	C139.384125,589.127136 136.113708,588.579285 132.887527,587.950439 
	C127.220345,586.845703 124.767326,584.473328 124.946793,580.127197 
	C125.127090,575.760620 128.840225,572.216187 134.045715,572.073792 
	C137.295486,571.984802 140.713409,572.201965 143.788269,573.149841 
	C147.071564,574.161987 149.224335,576.727722 148.895004,581.698975 
	C146.980560,580.809204 144.852982,580.528198 144.225372,579.407349 
	C141.361877,574.293030 136.802872,575.917358 132.758270,576.410583 
	C131.676102,576.542603 130.241287,579.019409 130.173889,580.475525 
	C130.125412,581.522705 131.892670,583.223267 133.176346,583.649475 
	C136.267441,584.676025 139.554138,585.107666 142.754761,585.811951 
	C146.716873,586.683899 150.041260,588.152893 150.079605,593.073242 
	C150.118027,598.002258 147.176804,600.196411 142.883179,601.128357 
	C140.816528,601.577087 138.686630,601.734314 136.148788,602.021362 
z"/>
<path fill="#096639" opacity="1.000000" stroke="none" 
	d="
M66.173904,268.060669 
	C61.990093,268.661957 58.252697,269.241852 54.251286,269.862701 
	C54.251286,266.690308 54.251286,263.615875 54.251286,260.266418 
	C77.389267,260.266418 100.399582,260.266418 123.409897,260.266418 
	C123.420288,260.387085 123.430687,260.507751 123.441078,260.628418 
	C104.500824,263.098694 85.560562,265.569000 66.173904,268.060669 
z"/>
<path fill="#09673A" opacity="1.000000" stroke="none" 
	d="
M178.072754,592.100159 
	C178.287903,589.399902 178.089462,587.796387 175.049973,587.982605 
	C170.926834,588.235229 166.776566,588.045532 162.121597,588.045532 
	C162.121597,592.383362 162.121597,596.459778 162.121597,600.775269 
	C160.222244,600.775269 158.839142,600.775269 157.222076,600.775269 
	C157.222076,591.502441 157.222076,582.417236 157.222076,573.096252 
	C158.815796,573.096252 160.195450,573.096252 161.990051,573.096252 
	C161.990051,576.769958 161.990051,580.196045 161.990051,583.842529 
	C167.471481,583.842529 172.538956,583.842529 178.013245,583.842529 
	C178.013245,580.258728 178.013245,576.828186 178.013245,573.126465 
	C179.804001,573.126465 181.202316,573.126465 182.893707,573.126465 
	C182.893707,582.200928 182.893707,591.289612 182.893707,600.749573 
	C181.563202,600.862976 180.154404,600.983093 178.072845,601.160522 
	C178.072845,598.116760 178.072845,595.346985 178.072754,592.100159 
z"/>
<path fill="#106B3F" opacity="1.000000" stroke="none" 
	d="
M414.763855,267.108673 
	C397.178528,264.919708 380.037750,262.773041 362.897003,260.626373 
	C362.904022,260.519562 362.911011,260.412720 362.918030,260.305908 
	C385.539825,260.305908 408.161652,260.305908 430.943665,260.305908 
	C430.943665,263.633972 430.943665,266.712524 430.943665,270.032349 
	C425.514801,269.038239 420.361633,268.094604 414.763855,267.108673 
z"/>
<path fill="#0C683C" opacity="1.000000" stroke="none" 
	d="
M218.972183,597.067200 
	C221.116577,597.068054 222.863693,596.757385 224.418549,597.170410 
	C225.618057,597.489075 226.576248,598.716003 227.641739,599.539124 
	C227.381760,599.954285 227.121780,600.369507 226.861801,600.784668 
	C220.095947,600.784668 213.330109,600.784668 206.191376,600.784668 
	C206.191376,591.683350 206.191376,582.494507 206.191376,573.065674 
	C207.636292,573.065674 209.038162,573.065674 210.827286,573.065674 
	C210.827286,580.956360 210.827286,588.715271 210.827286,597.067200 
	C213.631699,597.067200 216.061920,597.067200 218.972183,597.067200 
z"/>
<path fill="#0C683C" opacity="1.000000" stroke="none" 
	d="
M236.836517,572.933777 
	C237.303619,580.780212 237.303619,588.539978 237.303619,597.068298 
	C242.428802,597.068298 246.852173,596.893555 251.243988,597.188782 
	C252.369507,597.264343 253.395294,598.823853 254.466904,599.701599 
	C254.177032,600.086121 253.887161,600.470703 253.597290,600.855225 
	C246.840805,600.855225 240.084320,600.855225 232.825638,600.855225 
	C232.825638,592.237000 232.916489,583.803223 232.776962,575.373230 
	C232.727295,572.372620 234.558685,572.805542 236.836517,572.933777 
z"/>
<path fill="#056436" opacity="1.000000" stroke="none" 
	d="
M192.001221,577.168640 
	C191.435669,572.714050 193.499084,572.270996 196.827911,573.225586 
	C196.827911,582.295105 196.827911,591.345459 196.827911,600.777588 
	C195.438812,600.870789 194.050156,600.963989 192.001160,601.101501 
	C192.001160,593.098877 192.001160,585.374573 192.001221,577.168640 
z"/>
<path fill="#FAED25" opacity="1.000000" stroke="none" 
	d="
M302.122131,243.379196 
	C304.217804,256.897278 301.266510,269.583954 294.375183,281.049164 
	C277.649719,308.875610 254.741425,315.737610 230.179733,312.544830 
	C204.506805,309.207520 183.715698,288.446472 178.562576,262.350922 
	C177.273972,255.825394 178.140137,248.874390 178.346100,241.488388 
	C180.907242,237.778503 183.597946,234.683990 187.662857,236.099640 
	C191.120346,237.303757 194.471161,239.487808 197.192108,241.978088 
	C201.467865,245.891342 205.223740,250.382263 209.106537,254.712173 
	C212.238052,258.204315 215.468903,258.129303 218.500412,254.889389 
	C222.012299,251.136139 225.102280,246.988205 228.612793,243.233582 
	C235.613373,235.746170 241.522873,235.809952 248.538361,243.218002 
	C252.765121,247.681305 256.783234,252.367310 261.268341,256.553314 
	C265.205292,260.227722 267.285889,259.811920 270.743195,255.630981 
	C275.086639,250.378433 279.307373,245.022202 283.733124,239.840607 
	C287.628632,235.279846 291.692352,235.001404 296.342865,238.702499 
	C298.281830,240.245621 300.196442,241.819366 302.122131,243.379196 
z"/>
<path fill="#2891CF" opacity="1.000000" stroke="none" 
	d="
M302.089172,242.917511 
	C300.196442,241.819366 298.281830,240.245621 296.342865,238.702499 
	C291.692352,235.001404 287.628632,235.279846 283.733124,239.840607 
	C279.307373,245.022202 275.086639,250.378433 270.743195,255.630981 
	C267.285889,259.811920 265.205292,260.227722 261.268341,256.553314 
	C256.783234,252.367310 252.765121,247.681305 248.538361,243.218002 
	C241.522873,235.809952 235.613373,235.746170 228.612793,243.233582 
	C225.102280,246.988205 222.012299,251.136139 218.500412,254.889389 
	C215.468903,258.129303 212.238052,258.204315 209.106537,254.712173 
	C205.223740,250.382263 201.467865,245.891342 197.192108,241.978088 
	C194.471161,239.487808 191.120346,237.303757 187.662857,236.099640 
	C183.597946,234.683990 180.907242,237.778503 178.401581,241.080063 
	C180.768356,222.129547 189.184265,206.223083 205.142090,194.900803 
	C232.640305,175.390549 269.679077,181.976974 289.944122,209.771591 
	C297.056824,219.527039 301.401764,230.307434 302.089172,242.917511 
z"/>
<path fill="#FBFCFC" opacity="1.000000" stroke="none" 
	d="
M284.973450,586.158203 
	C284.583557,593.955994 280.814026,597.935425 274.172791,597.984375 
	C267.658447,598.032410 263.444672,594.225952 263.055389,587.941650 
	C262.676819,581.830444 266.052948,576.862427 271.168823,576.002747 
	C278.831421,574.715027 283.276825,577.853760 284.973450,586.158203 
z"/>
</svg>